<?xml version="1.0" encoding="UTF-8"?>
<svg version="1.1" viewBox="0 0 122.970583145 76" xmlns="http://www.w3.org/2000/svg">
  <style type="text/css">
    .background { fill: #43403d; }
    .foreground { fill: #f6e162; }
  </style>
  
  <!-- Background -->
  <rect class="background" width="100%" height="100%"/>
  
  <!-- Stripes -->
  <g class="foreground">
    <rect x="0" y="4"  width="100%" height="4"/>
    <rect x="0" y="12" width="100%" height="4"/>
    <rect x="0" y="20" width="100%" height="4"/>
    <rect x="0" y="28" width="100%" height="4"/>
    <rect x="0" y="36" width="100%" height="4"/>
    <rect x="0" y="44" width="100%" height="4"/>
    <rect x="0" y="52" width="100%" height="4"/>
    <rect x="0" y="60" width="100%" height="4"/>
    <rect x="0" y="68" width="100%" height="4"/>
  </g>
  
  <path class="foreground" d="
    M 46.970583145,16
    A 22,22 0 0,0 46.970583145,60
    A 26.356721358,26.356721358 0 0,1 46.970583145,16
    Z"/>
  
  <path class="background" d="
    M 46.970583145,16
    A 22,22 0 0,1 46.970583145,60
    A 26.356721358,26.356721358 0 0,1 46.970583145,16
    Z"/>
</svg>
