<?xml version="1.0" encoding="UTF-8"?>
<svg version="1.1" width="2520" height="1680" viewBox="0 0 2520 1680" xmlns="http://www.w3.org/2000/svg" xmlns:xlink="http://www.w3.org/1999/xlink">
   <defs>
      <path id="star" d="m
         0,-1
         L 0.22451,-0.30902
         L 0.95106,-0.30902
         L 0.36327,0.11803
         L 0.58779,0.80902
         L 0,0.38197
         L -0.58779,0.80902
         L -0.36327,0.11803
         L -0.95106,-0.30902
         L -0.224510,-0.30902
         z"/>

      <g id="torch">
         <path d="M-172.110206839 1590.93091202C-172.35737293 1590.68988801 -172.623180302 1590.356576 -172.79141103 1590.01206398C-281.603819727 1446.29141757 -170.920825026 1393.46952721 -168.682039006 1291.79592267C-96.6751884317 1425.47890464 -202.198441463 1467.06674649 -76.7438355419 1591.03081603C-76.7438355419 1591.03081603 -172.110206839 1590.93225602 -172.110206839 1590.93225602" />
         <path d="M-51.9328149142 1591.02118403C-90.2418924645 1537.13170962 -117.114530784 1451.10741778 -105.619412511 1394.90962327C-94.219330722 1338.74050077 -55.2985248245 1283.4315383 -60.6920105053 1240.9181284C-40.4193958403 1288.78379454 -21.3544028611 1307.23333136 -27.2575629327 1342.46002093C3.20313285918 1251.62084888 73.2198233129 1204.67246278 168.13921379 1200.00475057C-2.57409449634 1329.72942836 220.272254838 1429.42981681 72.9187605795 1591.16790403C72.9187605795 1591.16790403 -51.9328149142 1591.02230403 -51.9328149142 1591.02230403" />
         <path d="M104.557438152 1591.23868804C240.127349164 1427.66671274 67.6063897823 1343.83627699 224.836167682 1270.54459372C230.62184154 1318.90395588 192.087182539 1318.86856388 209.070883458 1378.05384652C211.981815108 1403.68504766 208.431733029 1424.5961206 200.126354738 1442.4484734C216.123167613 1422.83951252 247.236863082 1385.85151087 266.992790363 1371.46175023C220.241954356 1441.88959337 270.444182518 1503.52073212 157.676946123 1591.23420804C157.676946123 1591.23420804 102.225295648 1591.23420804 102.225295648 1591.23420804" />
         <path d="M81.6337385685 1944.19908779C87.6785535584 1790.83120895 120.493289423 1744.14311086 182.706239081 1680.000036C61.9833533713 1679.71488399 -72.9302488116 1679.69293199 -182.706628112 1679.61587598C-120.755205187 1743.85930285 -87.9814456436 1790.57876094 -82.2611573882 1943.93275178C-27.6247459891 1943.96859178 26.9974481294 1944.06491179 81.6337385685 1944.19931179C81.6337385685 1944.19931179 81.6337385685 1944.19931179 81.6337385685 1944.19931179" />
         <path d="M211.971856067 1652.46304277C211.971856067 1652.46304277 -212.508198723 1652.00765075 -212.508198723 1652.00765075C-212.508198723 1652.00765075 -212.460217921 1611.71945695 -212.460217921 1611.71945695C-212.460217921 1611.71945695 212.108932873 1612.15580897 212.108932873 1612.15580897C212.108932873 1612.15580897 211.971822467 1652.46304277 211.971822467 1652.46304277" />
         <path d="M108.629310334 2010.55998676C108.629310334 2010.55998676 -115.290323983 2010.32613075 -115.290323983 2010.32613075C-115.290323983 2010.32613075 -115.23031438 1960.20500851 -115.23031438 1960.20500851C-115.23031438 1960.20500851 108.710257217 1960.53384052 108.710257217 1960.53384052C108.710257217 1960.53384052 108.629326014 2010.55886676 108.629326014 2010.55886676" />
      </g>
   </defs>

   <!-- Background -->
   <rect fill="white" width="2520" height="1680" x="0" y="0" />

   <g fill="#B31942">
      <!-- Stripes -->
      <rect width="280" height="1680" x="1820" y="0"/>
      <rect width="2520" height="280" x="0" y="1120"/>
      
      <!-- Torch -->
      <use xlink:href="#torch" transform="translate(910 -1080)"/>
   </g>

   <!-- Stars -->
   <g fill="white">
      <use xlink:href="#star" transform="translate(560 1260) scale(112)"/>
      <use xlink:href="#star" transform="translate(1260 1260) scale(112)"/>
      <use xlink:href="#star" transform="translate(1960 1260) scale(112)"/>
   </g>
</svg>
